<mxfile host="app.diagrams.net" modified="2025-01-02T10:48:24.339Z" agent="Mozilla/5.0 (Windows NT 10.0; Win64; x64) AppleWebKit/537.36 (KHTML, like Gecko) Chrome/131.0.0.0 Safari/537.36" etag="yWYANux8uDVdEnygoozx" version="24.0.7" type="device">
  <diagram id="C5RBs43oDa-KdzZeNtuy" name="Page-1">
    <mxGraphModel dx="1877" dy="522" grid="1" gridSize="10" guides="1" tooltips="1" connect="1" arrows="1" fold="1" page="1" pageScale="1" pageWidth="827" pageHeight="1169" math="0" shadow="0">
      <root>
        <mxCell id="WIyWlLk6GJQsqaUBKTNV-0" />
        <mxCell id="WIyWlLk6GJQsqaUBKTNV-1" parent="WIyWlLk6GJQsqaUBKTNV-0" />
        <mxCell id="b5vwG92T4qXGvt45wdLD-13" style="edgeStyle=orthogonalEdgeStyle;rounded=0;orthogonalLoop=1;jettySize=auto;html=1;exitX=1;exitY=0.25;exitDx=0;exitDy=0;entryX=0;entryY=0.25;entryDx=0;entryDy=0;" edge="1" parent="WIyWlLk6GJQsqaUBKTNV-1" source="b5vwG92T4qXGvt45wdLD-0" target="b5vwG92T4qXGvt45wdLD-9">
          <mxGeometry relative="1" as="geometry" />
        </mxCell>
        <mxCell id="b5vwG92T4qXGvt45wdLD-0" value="Piece" style="swimlane;fontStyle=1;align=center;verticalAlign=middle;childLayout=stackLayout;horizontal=1;startSize=29;horizontalStack=0;resizeParent=1;resizeParentMax=0;resizeLast=0;collapsible=0;marginBottom=0;html=1;whiteSpace=wrap;" vertex="1" parent="WIyWlLk6GJQsqaUBKTNV-1">
          <mxGeometry x="185" y="440" width="145" height="79" as="geometry" />
        </mxCell>
        <mxCell id="b5vwG92T4qXGvt45wdLD-1" value="&amp;lt;&amp;lt;Entity&amp;gt;&amp;gt;" style="text;html=1;strokeColor=none;fillColor=none;align=center;verticalAlign=middle;spacingLeft=4;spacingRight=4;overflow=hidden;rotatable=0;points=[[0,0.5],[1,0.5]];portConstraint=eastwest;whiteSpace=wrap;" vertex="1" parent="b5vwG92T4qXGvt45wdLD-0">
          <mxGeometry y="29" width="145" height="25" as="geometry" />
        </mxCell>
        <mxCell id="b5vwG92T4qXGvt45wdLD-2" value="position: Position" style="text;html=1;strokeColor=none;fillColor=none;align=left;verticalAlign=middle;spacingLeft=4;spacingRight=4;overflow=hidden;rotatable=0;points=[[0,0.5],[1,0.5]];portConstraint=eastwest;whiteSpace=wrap;" vertex="1" parent="b5vwG92T4qXGvt45wdLD-0">
          <mxGeometry y="54" width="145" height="25" as="geometry" />
        </mxCell>
        <mxCell id="b5vwG92T4qXGvt45wdLD-6" style="edgeStyle=orthogonalEdgeStyle;rounded=0;orthogonalLoop=1;jettySize=auto;html=1;entryX=0;entryY=0.5;entryDx=0;entryDy=0;endArrow=block;endFill=0;" edge="1" parent="WIyWlLk6GJQsqaUBKTNV-1" source="b5vwG92T4qXGvt45wdLD-3" target="b5vwG92T4qXGvt45wdLD-1">
          <mxGeometry relative="1" as="geometry" />
        </mxCell>
        <mxCell id="b5vwG92T4qXGvt45wdLD-3" value="Pawn" style="html=1;whiteSpace=wrap;" vertex="1" parent="WIyWlLk6GJQsqaUBKTNV-1">
          <mxGeometry x="40" y="600" width="110" height="50" as="geometry" />
        </mxCell>
        <mxCell id="b5vwG92T4qXGvt45wdLD-4" value="Rook" style="html=1;whiteSpace=wrap;" vertex="1" parent="WIyWlLk6GJQsqaUBKTNV-1">
          <mxGeometry x="200" y="600" width="110" height="50" as="geometry" />
        </mxCell>
        <mxCell id="b5vwG92T4qXGvt45wdLD-8" style="edgeStyle=orthogonalEdgeStyle;rounded=0;orthogonalLoop=1;jettySize=auto;html=1;entryX=1;entryY=0.5;entryDx=0;entryDy=0;endArrow=block;endFill=0;" edge="1" parent="WIyWlLk6GJQsqaUBKTNV-1" source="b5vwG92T4qXGvt45wdLD-5" target="b5vwG92T4qXGvt45wdLD-1">
          <mxGeometry relative="1" as="geometry" />
        </mxCell>
        <mxCell id="b5vwG92T4qXGvt45wdLD-5" value="Bishop" style="html=1;whiteSpace=wrap;" vertex="1" parent="WIyWlLk6GJQsqaUBKTNV-1">
          <mxGeometry x="358.5" y="600" width="110" height="50" as="geometry" />
        </mxCell>
        <mxCell id="b5vwG92T4qXGvt45wdLD-7" style="edgeStyle=orthogonalEdgeStyle;rounded=0;orthogonalLoop=1;jettySize=auto;html=1;entryX=0.481;entryY=0.96;entryDx=0;entryDy=0;entryPerimeter=0;endArrow=block;endFill=0;" edge="1" parent="WIyWlLk6GJQsqaUBKTNV-1" source="b5vwG92T4qXGvt45wdLD-4" target="b5vwG92T4qXGvt45wdLD-2">
          <mxGeometry relative="1" as="geometry" />
        </mxCell>
        <mxCell id="b5vwG92T4qXGvt45wdLD-9" value="Position" style="swimlane;fontStyle=1;align=center;verticalAlign=middle;childLayout=stackLayout;horizontal=1;startSize=29;horizontalStack=0;resizeParent=1;resizeParentMax=0;resizeLast=0;collapsible=0;marginBottom=0;html=1;whiteSpace=wrap;" vertex="1" parent="WIyWlLk6GJQsqaUBKTNV-1">
          <mxGeometry x="470" y="440" width="140" height="106" as="geometry" />
        </mxCell>
        <mxCell id="b5vwG92T4qXGvt45wdLD-10" value="&amp;lt;&amp;lt;ValueObject&lt;span style=&quot;background-color: initial;&quot;&gt;&amp;gt;&amp;gt;&lt;/span&gt;" style="text;html=1;strokeColor=none;fillColor=none;align=center;verticalAlign=middle;spacingLeft=4;spacingRight=4;overflow=hidden;rotatable=0;points=[[0,0.5],[1,0.5]];portConstraint=eastwest;whiteSpace=wrap;" vertex="1" parent="b5vwG92T4qXGvt45wdLD-9">
          <mxGeometry y="29" width="140" height="25" as="geometry" />
        </mxCell>
        <mxCell id="b5vwG92T4qXGvt45wdLD-11" value="file: string" style="text;html=1;strokeColor=none;fillColor=none;align=left;verticalAlign=middle;spacingLeft=4;spacingRight=4;overflow=hidden;rotatable=0;points=[[0,0.5],[1,0.5]];portConstraint=eastwest;whiteSpace=wrap;" vertex="1" parent="b5vwG92T4qXGvt45wdLD-9">
          <mxGeometry y="54" width="140" height="26" as="geometry" />
        </mxCell>
        <mxCell id="b5vwG92T4qXGvt45wdLD-12" value="rank: string" style="text;html=1;strokeColor=none;fillColor=none;align=left;verticalAlign=middle;spacingLeft=4;spacingRight=4;overflow=hidden;rotatable=0;points=[[0,0.5],[1,0.5]];portConstraint=eastwest;whiteSpace=wrap;" vertex="1" parent="b5vwG92T4qXGvt45wdLD-9">
          <mxGeometry y="80" width="140" height="26" as="geometry" />
        </mxCell>
        <mxCell id="b5vwG92T4qXGvt45wdLD-39" style="edgeStyle=orthogonalEdgeStyle;rounded=0;orthogonalLoop=1;jettySize=auto;html=1;entryX=0.5;entryY=0;entryDx=0;entryDy=0;endArrow=diamondThin;endFill=1;" edge="1" parent="WIyWlLk6GJQsqaUBKTNV-1" source="b5vwG92T4qXGvt45wdLD-17" target="b5vwG92T4qXGvt45wdLD-0">
          <mxGeometry relative="1" as="geometry" />
        </mxCell>
        <mxCell id="b5vwG92T4qXGvt45wdLD-40" style="edgeStyle=orthogonalEdgeStyle;rounded=0;orthogonalLoop=1;jettySize=auto;html=1;entryX=0;entryY=0.5;entryDx=0;entryDy=0;" edge="1" parent="WIyWlLk6GJQsqaUBKTNV-1" source="b5vwG92T4qXGvt45wdLD-17" target="b5vwG92T4qXGvt45wdLD-23">
          <mxGeometry relative="1" as="geometry" />
        </mxCell>
        <mxCell id="b5vwG92T4qXGvt45wdLD-17" value="&lt;b&gt;Chess Game&lt;/b&gt;" style="swimlane;fontStyle=0;childLayout=stackLayout;horizontal=1;startSize=26;fillColor=none;horizontalStack=0;resizeParent=1;resizeParentMax=0;resizeLast=0;collapsible=1;marginBottom=0;whiteSpace=wrap;html=1;" vertex="1" parent="WIyWlLk6GJQsqaUBKTNV-1">
          <mxGeometry x="187.5" y="260" width="140" height="104" as="geometry" />
        </mxCell>
        <mxCell id="b5vwG92T4qXGvt45wdLD-18" value="+ board" style="text;strokeColor=none;fillColor=none;align=left;verticalAlign=top;spacingLeft=4;spacingRight=4;overflow=hidden;rotatable=0;points=[[0,0.5],[1,0.5]];portConstraint=eastwest;whiteSpace=wrap;html=1;" vertex="1" parent="b5vwG92T4qXGvt45wdLD-17">
          <mxGeometry y="26" width="140" height="26" as="geometry" />
        </mxCell>
        <mxCell id="b5vwG92T4qXGvt45wdLD-19" value="+ players" style="text;strokeColor=none;fillColor=none;align=left;verticalAlign=top;spacingLeft=4;spacingRight=4;overflow=hidden;rotatable=0;points=[[0,0.5],[1,0.5]];portConstraint=eastwest;whiteSpace=wrap;html=1;" vertex="1" parent="b5vwG92T4qXGvt45wdLD-17">
          <mxGeometry y="52" width="140" height="26" as="geometry" />
        </mxCell>
        <mxCell id="b5vwG92T4qXGvt45wdLD-25" value="+ state" style="text;strokeColor=none;fillColor=none;align=left;verticalAlign=top;spacingLeft=4;spacingRight=4;overflow=hidden;rotatable=0;points=[[0,0.5],[1,0.5]];portConstraint=eastwest;whiteSpace=wrap;html=1;" vertex="1" parent="b5vwG92T4qXGvt45wdLD-17">
          <mxGeometry y="78" width="140" height="26" as="geometry" />
        </mxCell>
        <mxCell id="b5vwG92T4qXGvt45wdLD-21" value="Chess Board" style="swimlane;fontStyle=1;align=center;verticalAlign=middle;childLayout=stackLayout;horizontal=1;startSize=29;horizontalStack=0;resizeParent=1;resizeParentMax=0;resizeLast=0;collapsible=0;marginBottom=0;html=1;whiteSpace=wrap;" vertex="1" parent="WIyWlLk6GJQsqaUBKTNV-1">
          <mxGeometry x="480" y="254.5" width="140" height="90" as="geometry" />
        </mxCell>
        <mxCell id="b5vwG92T4qXGvt45wdLD-23" value="pieces&lt;div&gt;squares&lt;/div&gt;&lt;div&gt;moves&lt;/div&gt;" style="text;html=1;strokeColor=none;fillColor=none;align=left;verticalAlign=middle;spacingLeft=4;spacingRight=4;overflow=hidden;rotatable=0;points=[[0,0.5],[1,0.5]];portConstraint=eastwest;whiteSpace=wrap;" vertex="1" parent="b5vwG92T4qXGvt45wdLD-21">
          <mxGeometry y="29" width="140" height="61" as="geometry" />
        </mxCell>
        <mxCell id="b5vwG92T4qXGvt45wdLD-30" style="edgeStyle=orthogonalEdgeStyle;rounded=0;orthogonalLoop=1;jettySize=auto;html=1;entryX=0.5;entryY=0;entryDx=0;entryDy=0;endArrow=diamond;endFill=1;" edge="1" parent="WIyWlLk6GJQsqaUBKTNV-1" source="b5vwG92T4qXGvt45wdLD-26" target="b5vwG92T4qXGvt45wdLD-29">
          <mxGeometry relative="1" as="geometry" />
        </mxCell>
        <mxCell id="b5vwG92T4qXGvt45wdLD-26" value="ChessGameHistory" style="swimlane;fontStyle=1;align=center;verticalAlign=middle;childLayout=stackLayout;horizontal=1;startSize=29;horizontalStack=0;resizeParent=1;resizeParentMax=0;resizeLast=0;collapsible=0;marginBottom=0;html=1;whiteSpace=wrap;" vertex="1" parent="WIyWlLk6GJQsqaUBKTNV-1">
          <mxGeometry x="-420" y="260" width="140" height="79" as="geometry" />
        </mxCell>
        <mxCell id="b5vwG92T4qXGvt45wdLD-27" value="&amp;lt;&amp;lt;stereotype1&amp;gt;&amp;gt;" style="text;html=1;strokeColor=none;fillColor=none;align=center;verticalAlign=middle;spacingLeft=4;spacingRight=4;overflow=hidden;rotatable=0;points=[[0,0.5],[1,0.5]];portConstraint=eastwest;whiteSpace=wrap;" vertex="1" parent="b5vwG92T4qXGvt45wdLD-26">
          <mxGeometry y="29" width="140" height="25" as="geometry" />
        </mxCell>
        <mxCell id="b5vwG92T4qXGvt45wdLD-28" value="stereotype property 1" style="text;html=1;strokeColor=none;fillColor=none;align=left;verticalAlign=middle;spacingLeft=4;spacingRight=4;overflow=hidden;rotatable=0;points=[[0,0.5],[1,0.5]];portConstraint=eastwest;whiteSpace=wrap;" vertex="1" parent="b5vwG92T4qXGvt45wdLD-26">
          <mxGeometry y="54" width="140" height="25" as="geometry" />
        </mxCell>
        <mxCell id="b5vwG92T4qXGvt45wdLD-29" value="Movement" style="html=1;whiteSpace=wrap;fontStyle=1" vertex="1" parent="WIyWlLk6GJQsqaUBKTNV-1">
          <mxGeometry x="-420" y="419" width="140" height="50" as="geometry" />
        </mxCell>
        <mxCell id="b5vwG92T4qXGvt45wdLD-35" style="edgeStyle=orthogonalEdgeStyle;rounded=0;orthogonalLoop=1;jettySize=auto;html=1;entryX=0;entryY=0.5;entryDx=0;entryDy=0;endArrow=block;endFill=0;" edge="1" parent="WIyWlLk6GJQsqaUBKTNV-1" source="b5vwG92T4qXGvt45wdLD-31" target="b5vwG92T4qXGvt45wdLD-29">
          <mxGeometry relative="1" as="geometry">
            <Array as="points">
              <mxPoint x="-520" y="444" />
            </Array>
          </mxGeometry>
        </mxCell>
        <mxCell id="b5vwG92T4qXGvt45wdLD-31" value="Move" style="html=1;whiteSpace=wrap;" vertex="1" parent="WIyWlLk6GJQsqaUBKTNV-1">
          <mxGeometry x="-560" y="546" width="70" height="44" as="geometry" />
        </mxCell>
        <mxCell id="b5vwG92T4qXGvt45wdLD-36" style="edgeStyle=orthogonalEdgeStyle;rounded=0;orthogonalLoop=1;jettySize=auto;html=1;endArrow=block;endFill=0;" edge="1" parent="WIyWlLk6GJQsqaUBKTNV-1" source="b5vwG92T4qXGvt45wdLD-32" target="b5vwG92T4qXGvt45wdLD-29">
          <mxGeometry relative="1" as="geometry">
            <Array as="points">
              <mxPoint x="-400" y="510" />
              <mxPoint x="-350" y="510" />
            </Array>
          </mxGeometry>
        </mxCell>
        <mxCell id="b5vwG92T4qXGvt45wdLD-32" value="Promotion" style="html=1;whiteSpace=wrap;" vertex="1" parent="WIyWlLk6GJQsqaUBKTNV-1">
          <mxGeometry x="-450" y="544" width="100" height="46" as="geometry" />
        </mxCell>
        <mxCell id="b5vwG92T4qXGvt45wdLD-37" style="edgeStyle=orthogonalEdgeStyle;rounded=0;orthogonalLoop=1;jettySize=auto;html=1;endArrow=block;endFill=0;" edge="1" parent="WIyWlLk6GJQsqaUBKTNV-1" source="b5vwG92T4qXGvt45wdLD-33">
          <mxGeometry relative="1" as="geometry">
            <mxPoint x="-350" y="470" as="targetPoint" />
            <Array as="points">
              <mxPoint x="-265" y="510" />
              <mxPoint x="-349" y="510" />
            </Array>
          </mxGeometry>
        </mxCell>
        <mxCell id="b5vwG92T4qXGvt45wdLD-33" value="Chech" style="html=1;whiteSpace=wrap;" vertex="1" parent="WIyWlLk6GJQsqaUBKTNV-1">
          <mxGeometry x="-320" y="544" width="90" height="46" as="geometry" />
        </mxCell>
        <mxCell id="b5vwG92T4qXGvt45wdLD-38" style="edgeStyle=orthogonalEdgeStyle;rounded=0;orthogonalLoop=1;jettySize=auto;html=1;entryX=1;entryY=0.5;entryDx=0;entryDy=0;endArrow=block;endFill=0;" edge="1" parent="WIyWlLk6GJQsqaUBKTNV-1" source="b5vwG92T4qXGvt45wdLD-34" target="b5vwG92T4qXGvt45wdLD-29">
          <mxGeometry relative="1" as="geometry">
            <Array as="points">
              <mxPoint x="-150" y="444" />
            </Array>
          </mxGeometry>
        </mxCell>
        <mxCell id="b5vwG92T4qXGvt45wdLD-34" value="Checkmate" style="html=1;whiteSpace=wrap;" vertex="1" parent="WIyWlLk6GJQsqaUBKTNV-1">
          <mxGeometry x="-190" y="546" width="90" height="50" as="geometry" />
        </mxCell>
      </root>
    </mxGraphModel>
  </diagram>
</mxfile>
